<?xml version="1.0" standalone="no"?>
<!DOCTYPE svg PUBLIC "-//W3C//DTD SVG 1.1//EN" "http://www.w3.org/Graphics/SVG/1.1/DTD/svg11.dtd" >
<!--
2013-9-30: Created.
-->
<svg>
<metadata>
Created by iconfont
</metadata>
<defs>

<font id="iconfont" horiz-adv-x="1024" >
  <font-face
    font-family="iconfont"
    font-weight="500"
    font-stretch="normal"
    units-per-em="1024"
    ascent="896"
    descent="-128"
  />
    <missing-glyph />
    
    <glyph glyph-name="x" unicode="x" horiz-adv-x="1001"
d="M281 543q-27 -1 -53 -1h-83q-18 0 -36.5 -6t-32.5 -18.5t-23 -32t-9 -45.5v-76h912v41q0 16 -0.5 30t-0.5 18q0 13 -5 29t-17 29.5t-31.5 22.5t-49.5 9h-133v-97h-438v97zM955 310v-52q0 -23 0.5 -52t0.5 -58t-10.5 -47.5t-26 -30t-33 -16t-31.5 -4.5q-14 -1 -29.5 -0.5
t-29.5 0.5h-32l-45 128h-439l-44 -128h-29h-34q-20 0 -45 1q-25 0 -41 9.5t-25.5 23t-13.5 29.5t-4 30v167h911zM163 247q-12 0 -21 -8.5t-9 -21.5t9 -21.5t21 -8.5q13 0 22 8.5t9 21.5t-9 21.5t-22 8.5zM316 123q-8 -26 -14 -48q-5 -19 -10.5 -37t-7.5 -25t-3 -15t1 -14.5
t9.5 -10.5t21.5 -4h37h67h81h80h64h36q23 0 34 12t2 38q-5 13 -9.5 30.5t-9.5 34.5q-5 19 -11 39h-368zM336 498v228q0 11 2.5 23t10 21.5t20.5 15.5t34 6h188q31 0 51.5 -14.5t20.5 -52.5v-227h-327z" />
    

    
    <glyph glyph-name="map" unicode="&#58880;" d="M704-85.33333300000004L704 320.78933300000006c60.778667 78.826667 123.456 174.357333 153.066667 263.573333L960 618.666667l0-640L704-85.33333300000004zM554.666667 234.66666699999996l-21.333333 0c0 0-213.333333 235.498667-213.333333 394.666667C320 753.045333 420.288 853.333333 544 853.333333S768 753.045333 768 629.333333C768 470.677333 554.666667 234.66666699999996 554.666667 234.66666699999996zM640 629.333333c0 53.013333-42.986667 96-96 96S448 682.346667 448 629.333333s42.986667-96 96-96S640 576.3199999999999 640 629.333333zM320-21.33333300000004L64-85.33333300000004 64 533.333333l161.770667 67.392c17.898667-62.506667 53.418667-128.789333 94.229333-190.826667L320-21.33333300000004zM533.333333 149.33333300000004l21.333333 0c0 0 34.218667 34.005333 80.213333 87.04L640 234.66666699999996l0-320-256 64L384 320l0.554667-0.192C460.629333 221.33333300000004 533.333333 149.33333300000004 533.333333 149.33333300000004z"  horiz-adv-x="1024" />

    
    <glyph glyph-name="fsu" unicode="&#58881;" d="M977.454545 11.636363999999958L46.545455 11.636363999999958c-25.693091 0-46.545455 20.852364-46.545455 46.545455l0 139.636364c0 25.693091 20.852364 46.545455 46.545455 46.545455l930.909091 0c25.693091 0 46.545455-20.852364 46.545455-46.545455l0-139.636364C1024 32.48872700000004 1003.147636 11.636363999999958 977.454545 11.636363999999958zM325.818182 197.81818199999998L139.636364 197.81818199999998l0-46.545455 186.181818 0L325.818182 197.81818199999998zM325.818182 104.72727299999997L139.636364 104.72727299999997l0-46.545455 186.181818 0L325.818182 104.72727299999997zM744.727273 104.72727299999997l-46.545455 0 0-46.545455 46.545455 0L744.727273 104.72727299999997zM837.818182 104.72727299999997l-46.545455 0 0-46.545455 46.545455 0L837.818182 104.72727299999997zM930.909091 104.72727299999997l-46.545455 0 0-46.545455 46.545455 0L930.909091 104.72727299999997zM977.454545 290.909091L46.545455 290.909091c-25.693091 0-46.545455 20.852364-46.545455 46.545455L0 477.090909c0 25.693091 20.852364 46.545455 46.545455 46.545455l930.909091 0c25.693091 0 46.545455-20.852364 46.545455-46.545455l0-139.636364C1024 311.76145499999996 1003.147636 290.909091 977.454545 290.909091zM325.818182 477.090909L139.636364 477.090909l0-46.545455 186.181818 0L325.818182 477.090909zM325.818182 384L139.636364 384l0-46.545455 186.181818 0L325.818182 384zM744.727273 384l-46.545455 0 0-46.545455 46.545455 0L744.727273 384zM837.818182 384l-46.545455 0 0-46.545455 46.545455 0L837.818182 384zM930.909091 384l-46.545455 0 0-46.545455 46.545455 0L930.909091 384zM977.454545 570.181818L46.545455 570.181818C20.852364 570.181818 0 591.034182 0 616.727273L0 756.363636c0 25.693091 20.852364 46.545455 46.545455 46.545455l930.909091 0c25.693091 0 46.545455-20.852364 46.545455-46.545455l0-139.636364C1024 591.034182 1003.147636 570.181818 977.454545 570.181818zM325.818182 756.363636L139.636364 756.363636l0-46.545455 186.181818 0L325.818182 756.363636zM325.818182 663.272727L139.636364 663.272727l0-46.545455 186.181818 0L325.818182 663.272727zM744.727273 663.272727l-46.545455 0 0-46.545455 46.545455 0L744.727273 663.272727zM837.818182 663.272727l-46.545455 0 0-46.545455 46.545455 0L837.818182 663.272727zM930.909091 663.272727l-46.545455 0 0-46.545455 46.545455 0L930.909091 663.272727z"  horiz-adv-x="1024" />

    
    <glyph glyph-name="card" unicode="&#58882;" d="M880.182 15.817999999999984h-736.363c-45.163 0-81.818 36.654-81.818 81.818v572.727c0 45.163 36.654 81.818 81.818 81.818h736.363c45.163 0 81.818-36.654 81.818-81.818v-572.727c0-45.163-36.654-81.818-81.818-81.818zM921.091 711.273h-818.182v-654.546h818.182v654.546zM552.909 588.546h-409.091v40.909h409.091v-40.909zM552.909 506.727h-409.091v40.909h409.091v-40.909zM552.909 424.909h-409.091v40.909h409.091v-40.909zM552.909 343.091h-409.091v40.909h409.091v-40.909zM880.182 220.36300000000006h-736.363v40.909h736.363v-40.909zM880.182 138.54600000000005h-736.363v40.909h736.363v-40.909zM839.273 343.091c-22.582 0-40.909 18.327-40.909 40.909 0 2.209 0.9 4.091 1.227 6.177 21.723 5.809 41.482 15.913 58.663 29.454 12.846-6.873 21.927-20.004 21.927-35.632 0-22.582-18.327-40.909-40.909-40.909zM716.546 384c0-22.582-18.327-40.909-40.909-40.909s-40.909 18.327-40.909 40.909c0 15.627 9.082 28.759 21.927 35.632 17.141-13.541 36.9-23.646 58.663-29.454 0.327-2.087 1.227-3.968 1.227-6.177zM757.454 424.909c-67.787 0-122.727 54.941-122.727 122.727s54.941 122.727 122.727 122.727 122.727-54.941 122.727-122.727-54.941-122.727-122.727-122.727z"  horiz-adv-x="1024" />

    
    <glyph glyph-name="statistic" unicode="&#58884;" d="M812-56h-600c-55.96 0-80 25.68-80 80v720c0 54.32 24.04 80 80 80h340c39.48 0 55.48-14.9 80-40l202.82-200.42c28.52-26.4 57.18-54.18 57.18-79.58v-480c0-54.32-24.04-80-80-80zM392.54 623.62l27.2 37.02c-27.2 17.3-55.96 27.92-86.08 29.22v22.48h-25.86v-19.92c-25.86-1.3-47.72-9.3-64.22-23.8-16.28-14.5-25.86-34.42-25.86-56.92s8.24-39.82 21.84-53.02c13.82-10.84 35.68-21.44 67.12-28.14v-78.12c-24.54 3.9-47.72 14.5-70.9 34.42l-30.1-34.42c30.1-25.1 64.22-39.82 101.02-43.72v-29.02h25.86v29.22c28.76 1.3 50.4 9.32 68.24 23.8 16.28 14.5 25.86 34.42 25.86 56.92 0 23.8-6.92 41.12-21.86 53.02-14.94 11.9-38.12 22.5-69.56 29.22h-1.34v75.52c21.86-2.54 41.02-11.86 58.64-23.76zM652 644c0 11.04-8.96 20-20 20h-120c-11.04 0-20-8.96-20-20v-40c0-11.04 8.96-20 20-20h120c11.04 0 20 8.96 20 20v40zM792 484c0 11.04-8.96 20-20 20h-260c-11.04 0-20-8.96-20-20v-40c0-11.04 8.96-20 20-20h260c11.04 0 20 8.96 20 20v40zM832 304c0 11.04-8.96 20-20 20h-600c-11.04 0-20-8.96-20-20v-60c0-11.04 8.96-20 20-20h600c11.04 0 20 8.96 20 20v60zM832 124c0 11.04-8.96 20-20 20h-600c-11.04 0-20-8.96-20-20v-60c0-11.04 8.96-20 20-20h600c11.04 0 20 8.96 20 20v60zM267 616.7c0 8 4.02 15.8 10.92 22.5 6.92 5.4 16.5 9.3 28.76 10.6v-70.12c-15.16 5.2-26.08 10.6-31.44 15.8-5.56 5.42-8.24 11.9-8.24 21.22zM377.6 485.54c-1.34-9.3-5.34-17.1-12.26-22.5-8.24-6.7-17.84-9.3-31.42-10.6v71.42c16.26-5.2 27.2-10.62 34.12-15.82 5.32-5.18 9.56-13.2 9.56-22.5z"  horiz-adv-x="1024" />

    
    <glyph glyph-name="alarm" unicode="&#58886;" d="M821.563 456.675c-9.6 10.106-19.65 19.744-30.169 28.875l139.519 147.413 31.163-27.806-140.512-148.481zM650.112 566.925l104.1 192.075 37.256-18.75-102.356-188.887c-12.694 5.813-25.688 11.006-39 15.563zM512.037 590.25c-6.281 0-12.413-0.675-18.638-0.938v207.188h37.256v-207.188c-6.206 0.262-12.338 0.938-18.619 0.938zM334.963 551.363l-102.356 188.887 37.256 18.75 104.081-192.075c-13.294-4.556-26.287-9.75-38.981-15.563zM202.512 456.675l-140.512 148.462 31.163 27.806 139.519-147.413c-10.5-9.112-20.569-18.731-30.169-28.856zM812.075-28.5h-653.981v356.25h-0.619c70.894 123.169 202.95 206.25 354.563 206.25 151.181 0 282.9-82.631 353.944-205.237v-357.262h-53.906zM810.087 275.66200000000003c-55.65 108.788-168.094 183.338-298.05 183.338-6.281 0-12.45-0.45-18.637-0.806v-411.694h316.688v229.162z"  horiz-adv-x="1025" />

    
    <glyph glyph-name="jiankongdianzhongxinpeizhi" unicode="&#58889;" d="M879.197091 197.818182 191.348364 197.818182C137.076364 197.818182 93.090909 239.522909 93.090909 290.909091L93.090909 709.818182c0 51.386182 43.985455 93.090909 98.257455 93.090909l687.802182 0C933.469091 802.909091 977.454545 761.204364 977.454545 709.818182l0-418.909091C977.454545 239.522909 933.469091 197.818182 879.197091 197.818182zM930.909091 756.363636 139.636364 756.363636l0-512 791.272727 0L930.909091 756.363636zM884.363636 290.909091 186.181818 290.909091 186.181818 709.818182l698.181818 0L884.363636 290.909091zM372.363636 430.545455 325.818182 430.545455l0-93.090909 46.545455 0L372.363636 430.545455zM465.454545 523.636364 418.909091 523.636364l0-186.181818 46.545455 0L465.454545 523.636364zM558.545455 616.727273l-46.545455 0 0-279.272727 46.545455 0L558.545455 616.727273zM651.636364 570.181818l-46.545455 0 0-232.727273 46.545455 0L651.636364 570.181818zM744.727273 523.636364l-46.545455 0 0-186.181818 46.545455 0L744.727273 523.636364zM283.136 58.181818 418.909091 58.181818l0 93.090909 232.727273 0 0-93.090909 135.773091 0C815.243636 58.181818 837.818182 37.329455 837.818182 11.636364s-22.574545-46.545455-50.408727-46.545455L283.136-34.909091C255.301818-34.909091 232.727273-14.056727 232.727273 11.636364S255.301818 58.181818 283.136 58.181818z"  horiz-adv-x="1024" />

    
    <glyph glyph-name="nenghaoguanli" unicode="&#58892;" d="M511.96-55.76c-198.92 0-359.96 76.78-359.96 319.76s359.96 560.16 359.96 560.16 360.040-317.18 360.040-560.16-161.14-319.76-360.040-319.76zM552 584l-180-240 120-60-58.34-218.4 198.34 218.4-120 80 40 220z"  horiz-adv-x="1024" />

    
    <glyph glyph-name="range" unicode="&#59005;" d="M887 421.5h-206.25c-10.35 0-18.75 8.4-18.75 18.75v150c0 10.35 8.4 18.75 18.75 18.75h206.25c10.35 0 18.75-8.4 18.75-18.75v-150c0-10.35-8.4-18.75-18.75-18.75zM737 796.5c0 10.35 8.4 18.75 18.75 18.75h56.25c10.35 0 18.75-8.4 18.75-18.75v-168.75h-93.75v168.75zM624.5 140.25h-206.25c-10.35 0-18.75 8.4-18.75 18.75v150c0 10.35 8.4 18.75 18.75 18.75h206.25c10.35 0 18.75-8.4 18.75-18.75v-150c0-10.35-8.4-18.75-18.75-18.75zM474.5 796.5c0 10.35 8.4 18.75 18.75 18.75h56.25c10.35 0 18.75-8.4 18.75-18.75v-450h-93.75v450zM343.25 309h-206.25c-10.35 0-18.75 8.4-18.75 18.75v150c0 10.35 8.4 18.75 18.75 18.75h206.25c10.35 0 18.75-8.4 18.75-18.75v-150c0-10.35-8.4-18.75-18.75-18.75zM193.25 796.5c0 10.35 8.4 18.75 18.75 18.75h56.25c10.35 0 18.75-8.4 18.75-18.75v-281.25h-93.75v281.25zM287-28.5c0-10.369-8.4-18.75-18.75-18.75h-56.25c-10.35 0-18.75 8.381-18.75 18.75v318.75h93.75v-318.75zM568.25-28.5c0-10.369-8.4-18.75-18.75-18.75h-56.25c-10.35 0-18.75 8.381-18.75 18.75v150h93.75v-150zM830.75-28.5c0-10.369-8.4-18.75-18.75-18.75h-56.25c-10.35 0-18.75 8.381-18.75 18.75v431.25h93.75v-431.25z"  horiz-adv-x="1024" />

    
    <glyph glyph-name="setting" unicode="&#59007;" d="M956.893 304.43600000000004c-3.122-4.312-7.038-6.853-11.695-7.62l-108.3-16.404c-7.435-21.088-15.029-38.87-22.835-53.317 13.653-19.527 34.556-46.463 62.656-80.835 3.889-4.684 5.847-9.578 5.847-14.632 0-5.08-1.747-9.578-5.266-13.494-10.531-14.447-29.847-35.535-57.946-63.265-28.101-27.703-46.437-41.594-55.036-41.594-4.684 0-9.764 1.747-15.215 5.266l-80.782 63.265c-17.172-8.996-34.927-16.404-53.29-22.253-6.245-53.105-11.906-89.408-16.987-108.935-2.752-10.927-9.764-16.404-21.062-16.404h-129.97c-5.478 0-10.24 1.667-14.341 4.974s-6.35 7.515-6.721 12.594l-16.378 107.77c-19.131 6.245-36.699 13.468-52.708 21.67l-82.553-62.683c-3.917-3.519-8.784-5.266-14.632-5.266-5.478 0-10.345 2.144-14.632 6.457-49.163 44.531-81.39 77.316-96.604 98.403-2.752 3.889-4.101 8.388-4.101 13.494 0 4.684 1.561 9.155 4.684 13.468 5.847 8.203 15.797 21.168 29.847 38.948 14.05 17.754 24.581 31.539 31.62 41.303-10.531 19.527-18.548 38.843-23.998 57.973l-107.188 15.823c-5.08 0.794-9.182 3.228-12.277 7.329-3.149 4.101-4.684 8.679-4.684 13.786v130.023c0 4.684 1.561 9.155 4.684 13.468 3.122 4.286 6.827 6.827 11.113 7.62l108.881 16.404c5.478 17.965 13.071 35.933 22.835 53.898-15.611 22.253-36.488 49.189-62.656 80.835-3.889 4.658-5.847 9.34-5.847 14.024 0 3.889 1.773 8.388 5.266 13.468 10.161 14.05 29.37 35.059 57.682 62.974 28.286 27.915 46.728 41.859 55.327 41.859 5.054 0 10.133-1.958 15.215-5.847l80.808-62.683c17.146 8.97 34.927 16.404 53.29 22.253 6.245 53.105 11.88 89.408 16.96 108.935 2.752 10.928 9.764 16.404 21.088 16.404h129.97c5.478 0 10.24-1.667 14.341-4.974s6.35-7.515 6.721-12.594l16.404-107.77c19.131-6.245 36.673-13.468 52.682-21.67l83.137 62.683c3.519 3.493 8.203 5.266 14.05 5.266 5.054 0 9.95-1.958 14.632-5.847 50.352-46.463 82.553-79.671 96.604-99.568 2.725-3.122 4.101-7.435 4.101-12.886 0-4.684-1.587-9.182-4.684-13.468-5.847-8.203-15.823-21.194-29.847-38.948-14.05-17.782-24.581-31.539-31.62-41.303 10.133-19.527 18.151-38.658 23.998-57.391l107.135-16.404c5.08-0.794 9.182-3.228 12.304-7.329s4.684-8.706 4.684-13.786v-130.023c-0.026-4.657-1.561-9.155-4.71-13.441zM512 542.573c-87.661 0-158.759-71.097-158.759-158.759s71.097-158.759 158.759-158.759 158.759 71.097 158.759 158.759-71.097 158.759-158.759 158.759z"  horiz-adv-x="1024" />

    
    <glyph glyph-name="camera" unicode="&#59008;" d="M72-56c0 0 0 25.66 0 40 0 40.2 104.14 98.24 140 100 3 0.14 5.94-0.14 8.92-0.34 50.38-58.74 161.62-99.66 291.08-99.66 68.84 0 116.14 8.38 151.04 20.14 61.32 17.46 110.42 45.32 139.6 79.04 3.02 0.4 6 0.8 9.36 0.82 38.36 0.14 140-59.44 140-100 0-14.12 0-40 0-40h-880zM512 24c-220.92 0-400 179.08-400 400s179.08 400 400 400 400-179.08 400-400-179.08-400-400-400zM512 724c-165.68 0-300-134.32-300-300s134.32-300 300-300 300 134.32 300 300-134.32 300-300 300zM512 164c-143.6 0-260 116.4-260 260s116.4 260 260 260 260-116.4 260-260-116.4-260-260-260zM512 624c-110.46 0-200-89.54-200-200 0-110.44 89.54-200 200-200 110.44 0 200 89.56 200 200 0 110.46-89.56 200-200 200zM532 504c-55.22 0-100-44.78-100-100h-37.98c-1.1 6.54-2.02 13.16-2.02 20 0 66.26 53.74 120 120 120 6.84 0 13.46-0.92 20-2.02v-37.98z"  horiz-adv-x="1024" />

    
    <glyph glyph-name="video" unicode="&#59009;" d="M912-56h-40v60h-100v-60h-520v60h-100v-60h-40c-22.08 0-40 17.92-40 40v800c0 22.08 17.92 40 40 40h40v-60h100v60h520v-60h100v60h40c22.08 0 40-17.92 40-40v-800c0-22.08-17.92-40-40-40zM252 664h-100v-120h100v120zM252 444h-100v-120h100v120zM252 224h-100v-120h100v120zM412 544v-320l260 160-260 160zM872 664h-100v-120h100v120zM872 444h-100v-120h100v120zM872 224h-100v-120h100v120z"  horiz-adv-x="1024" />

    
    <glyph glyph-name="home" unicode="&#59010;" d="M812 346.538v-318.788c0-20.7-16.8-37.5-37.5-37.5h-150c-20.7 0-37.5 16.8-37.5 37.5v150c0 20.7-16.8 37.5-37.5 37.5h-75c-20.7 0-37.5-16.8-37.5-37.5v-150c0-20.7-16.8-37.5-37.5-37.5h-150c-20.7 0-37.5 16.8-37.5 37.5v318.788h-112.406c0 0-18.844 4.106-18.844 18.712 0 25.575 18.75 37.5 18.75 37.5s373.837 355.069 393.75 375 37.5 0 37.5 0l393.75-375c0 0 18.75-14.85 18.75-37.5 0-13.65-18.844-18.712-18.844-18.712h-112.406z"  horiz-adv-x="1024" />

    
    <glyph glyph-name="system" unicode="&#59013;" d="M891.24 203.89999999999998h-758.26c-33.5 0-60.66 28.3-60.66 63.18v473.9c0 34.9 27.16 63.18 60.66 63.18h758.26c33.5 0 60.66-28.3 60.66-63.18v-473.9c0-34.9-27.16-63.18-60.66-63.18zM891.88 724h-19.88v20h-720v-20h-19.66v-440h19.66v-19.96h720v19.96h19.88v440zM192 704v-20h-19.66v-360h19.66v-20h640v20h19.88v360h-19.88v20M272 44h160v120h180v-120h140c22.08 0 40-17.92 40-40s-17.92-40-40-40h-480c-22.08 0-40 17.92-40 40s17.92 40 40 40z"  horiz-adv-x="1024" />

    
    <glyph glyph-name="circle_warn" unicode="&#59014;" d="M512 252.75c20.709 0 37.5-16.791 37.5-37.5s-16.791-37.5-37.5-37.5-37.5 16.791-37.5 37.5 16.791 37.5 37.5 37.5zM474.5 552.75c0 20.709 16.791 37.5 37.5 37.5s37.5-16.791 37.5-37.5v-234.374c0-20.709-16.791-37.5-37.5-37.5s-37.5 16.791-37.5 37.5v234.374zM512-37.875c-79.444 0-153.628 22.134-217.069 60.32-1.077 0.591-2.184 1.134-3.187 1.828-0.506 0.309-1.041 0.581-1.556 0.891l0.188 0.233c-7.706 6-12.75 15.262-12.75 25.791 0 18.121 14.691 32.813 32.813 32.813 7.594 0 14.503-2.691 20.062-7.022l0.262 0.338c53.109-31.444 115.041-49.565 181.237-49.565 196.753 0 356.251 159.497 356.251 356.251s-159.497 356.251-356.251 356.251-356.251-159.497-356.251-356.251c0-68.194 19.19-131.897 52.425-186.047l-0.188-0.103c2.475-4.621 4.013-9.806 4.013-15.412 0-18.121-14.691-32.813-32.813-32.813-11.371 0-21.384 5.794-27.272 14.577l-0.038-0.02c-39.159 64.012-61.753 139.275-61.753 219.817 0 232.997 188.878 421.875 421.875 421.875s421.875-188.878 421.875-421.875-188.878-421.875-421.875-421.875z"  horiz-adv-x="1024" />

    
    <glyph glyph-name="help" unicode="&#59016;" d="M512-37.875c-232.98 0-421.875 188.894-421.875 421.875s188.894 421.875 421.875 421.875 421.875-188.894 421.875-421.875-188.894-421.875-421.875-421.875zM432.898 93.96100000000001h131.836v131.836h-131.836v-131.836zM525.184 674.039c-94.658 0-171.387-76.729-171.387-171.387 0-4.508 1.002-8.754 1.318-13.184h105.469c-0.844 4.271-1.318 8.675-1.318 13.184 0 36.413 29.505 65.918 65.918 65.918s65.918-29.505 65.918-65.918c0-45.879-28.529-77.994-58.799-88.357-96.794-32.985-98.534-104.783-98.534-104.783s-0.58 0.132-0.87 0.237v-57.586h131.836v29.031c0.343-0.132 0.739-0.106 1.081-0.211-0.58 3.507-1.081 7.04-1.081 10.732 0 27.501 16.875 51.047 40.816 60.908 53.894 28.766 91.02 84.665 91.02 150.029 0 94.658-76.729 171.387-171.387 171.387z"  horiz-adv-x="1024" />

    
    <glyph glyph-name="config" unicode="&#59017;" d="M933.875 74.625l-112.5-112.5-225 215.55c-49.837-28.969-106.931-46.8-168.75-46.8-186.413 0-337.5 151.144-337.5 337.5 0 49.444 11.081 96.188 30.262 138.488l194.737-194.738 168.75 168.75-194.737 194.738c42.3 19.181 89.044 30.262 138.487 30.262 186.356 0 337.5-151.087 337.5-337.5 0-61.819-17.831-118.912-46.856-168.75l215.606-225z"  horiz-adv-x="1024" />

    
    <glyph glyph-name="cleavage" unicode="&#59018;" d="M512 384c0 0-158.91 68.438-158.91 211.879 0 68.278 71.138 158.91 158.91 158.91s158.91-90.631 158.91-158.91c0-147.892-158.91-211.879-158.91-211.879zM670.91 172.12099999999998c0-68.225-71.138-158.91-158.91-158.91s-158.91 90.684-158.91 158.91c0 135.761 158.91 211.879 158.91 211.879s158.91-66.213 158.91-211.879z"  horiz-adv-x="1024" />

    
    <glyph glyph-name="dot" unicode="&#59019;" d="M512 638.342c137.108 0 248.295-111.138 248.295-248.295 0-137.108-111.187-248.295-248.295-248.295-137.159 0-248.295 111.187-248.295 248.295 0 137.108 111.138 248.295 248.295 248.295z"  horiz-adv-x="1024" />

    
    <glyph glyph-name="list_left" unicode="&#59021;" d="M0 853.3340000000001h905.846v-196.923h-905.846v196.923zM0 459.488h1181.538v-196.923h-1181.538v196.923zM0 105.02599999999995h905.846v-196.923h-905.846v196.923z"  horiz-adv-x="1261" />

    
    <glyph glyph-name="tshirt" unicode="&#59022;" d="M242 474l-120-60-90 180 240 120h60c0 0 89.25-120 180-120 89.22 0 180 120 180 120h60l240-120-90-180-120 60v-450h-540v450z"  horiz-adv-x="1024" />

    
    <glyph glyph-name="tri_up" unicode="&#59023;" d="M934.451 620.0070000000001l424.719-472.014h-849.438l424.719 472.014z"  horiz-adv-x="1844" />

    
    <glyph glyph-name="tri_down" unicode="&#59024;" d="M929.128 147.99300000000005l424.719 472.014h-849.438l424.719-472.014z"  horiz-adv-x="1844" />

    
    <glyph glyph-name="bell" unicode="&#59025;" d="M827 325.304c-0.704-6.534-1.957-12.874-1.957-19.566 0-76.578 49.148-141.026 117.391-165.326v-89.022h-860.87v89.022c68.243 24.261 117.391 88.747 117.391 165.326 0 6.691-1.252 13.03-1.957 19.566h4.696c-1.643 12.834-2.739 25.866-2.739 39.13v117.391c0 159.613 119.543 291.053 273.913 310.343v41.83h78.261v-41.83c154.37-19.291 273.913-150.73 273.913-310.343v-117.391c0-13.266-1.096-26.296-2.7-39.13h4.657zM512-66c-51.025 0-94.03 32.752-110.191 78.261h220.422c-16.2-45.509-59.204-78.261-110.23-78.261z"  horiz-adv-x="1024" />

    
    <glyph glyph-name="upgrade" unicode="&#59027;" d="M877.625-37.875h-731.25c-31.05 0-56.25 25.2-56.25 56.25v393.75h112.5v-281.25c0-31.05 25.2-56.25 56.25-56.25h506.25c31.05 0 56.25 25.2 56.25 56.25v281.25h112.5v-393.75c0-31.05-25.2-56.25-56.25-56.25zM596.375 187.125h-168.75v337.5h-168.356l252.731 280.8 252.731-280.8h-168.356v-337.5z"  horiz-adv-x="1024" />

    
    <glyph glyph-name="detail" unicode="&#59028;" d="M842-66h-660c-33.12 0-60 26.88-60 60v780c0 33.12 26.88 60 60 60h480l240-240v-600c0-33.12-26.88-60-60-60zM662 534c-33.12 0-60 26.88-60 60v180h-360c-33.12 0-60-26.88-60-60v-660c0-33.12 26.88-60 60-60h540c33.12 0 60 26.88 60 60v480h-180zM242 234h540v-60h-540v60zM242 414h540v-60h-540v60zM242 594h240v-60h-240v60z"  horiz-adv-x="1024" />

    
    <glyph glyph-name="list_right" unicode="&#58950;" d="M1365.333333 896L341.333333 896l0-204.8 1024 0L1365.333333 896zM1365.333333 486.4L0 486.4l0-204.8 1365.333333 0L1365.333333 486.4zM1365.333333 76.79999999999995L341.333333 76.79999999999995l0-204.8 1024 0L1365.333333 76.79999999999995z"  horiz-adv-x="1366" />

    
    <glyph glyph-name="tri_right" unicode="&#58951;" d="M288-76.08799999999997l-0.512 896 512.512-448-512-448z"  horiz-adv-x="1024" />

    
    <glyph glyph-name="tri_left" unicode="&#58952;" d="M736-73.33299999999997l0.512 896-512.512-448 512-448z"  horiz-adv-x="1024" />

    
    <glyph glyph-name="issue" unicode="&#58954;" d="M782-66h-540c-33.12 0-60 26.88-60 60v660c0 33.12 26.88 60 60 60h180c0 0 0 26.88 0 60s40.08 60 60 60h60c19.92 0 60-26.88 60-60s0-60 0-60h180c33.12 0 60-26.88 60-60v-660c0-33.12-26.88-60-60-60zM782 594c0 33.12-26.88 60-60 60h-60v-60h-300v60h-60c-33.12 0-60-26.88-60-60v-540c0-33.12 26.88-60 60-60h420c33.12 0 60 26.88 60 60v540zM302 174h420v-60h-420v60zM302 294h420v-60h-420v60zM302 414h420v-60h-420v60zM302 534h420v-60h-420v60z"  horiz-adv-x="1024" />

    
    <glyph glyph-name="confirm" unicode="&#58955;" d="M512-37.875c-232.988 0-421.875 188.887-421.875 421.875s188.887 421.875 421.875 421.875 421.875-188.887 421.875-421.875-188.887-421.875-421.875-421.875zM756.575 637.125c-175.894-92.475-287.438-369.788-287.438-369.788l-68.625 136.463-141.638-88.031c60.075-21.994 145.856-92.419 218.813-184.894 51.525 96.862 210.206 294.975 287.438 312.581-30.037 70.425-12.881 127.631-8.55 193.669z"  horiz-adv-x="1024" />

    
    <glyph glyph-name="warn" unicode="&#58956;" d="M985.929143 13.312000000000012l0.512 0.950857L542.829714 803.949714l-0.146286 0C537.563429 815.067429 526.482286 822.857143 513.499429 822.857143s-24.100571-7.789714-29.184-18.907429l-0.109714 0L34.596571 8.447999999999979l0.036571-0.073143c-1.828571-4.059429-2.998857-8.484571-2.998857-13.238857 0-17.846857 14.445714-32.292571 32.292571-32.292571 1.426286 0 2.596571 0.658286 3.949714 0.768l0.329143-0.438857 891.757714-0.365714c17.773714 0 32.292571 14.445714 32.292571 32.292571C992.292571 2.048000000000002 989.659429 8.082285999999954 985.929143 13.312000000000012zM469.174857 568.5394289999999c0 24.941714 20.224 45.165714 45.165714 45.165714s45.165714-20.224 45.165714-45.165714l0-308.370286c0-24.978286-20.224-45.165714-45.165714-45.165714s-45.165714 20.224-45.165714 45.165714L469.174857 568.5394289999999zM514.523429 78.11657100000002c-26.806857 0-48.566857 21.796571-48.566857 48.603429 0 26.733714 21.76 48.530286 48.566857 48.530286 26.770286 0 48.603429-21.796571 48.603429-48.530286C563.126857 99.87657100000001 541.330286 78.11657100000002 514.523429 78.11657100000002z"  horiz-adv-x="1024" />

    
    <glyph glyph-name="checkbox" unicode="&#58957;" d="M845.71 754.789h-667.419c-20.468 0-37.079-16.612-37.079-37.079v-667.419c0-20.468 16.612-37.079 37.079-37.079h667.419c20.468 0 37.079 16.612 37.079 37.079v667.419c0 20.468-16.612 37.079-37.079 37.079zM474.921 198.606l-185.394 185.394 74.158 74.158 111.237-111.237 222.473 222.473 74.158-74.158-296.631-296.631z"  horiz-adv-x="1024" />

    
    <glyph glyph-name="upto" unicode="&#58958;" d="M512 674.039l290.039-316.406h-210.938v-369.141h-158.203v369.141h-210.99l290.092 316.406zM274.695 779.508h474.609v-52.734h-474.609v52.734z"  horiz-adv-x="1024" />

    
    <glyph glyph-name="downto" unicode="&#58959;" d="M512 93.96100000000001l-290.039 316.406h210.938v369.141h158.203v-369.141h210.99l-290.092-316.406zM749.305-11.508000000000038h-474.609v52.734h474.609v-52.734z"  horiz-adv-x="1024" />

    
    <glyph glyph-name="clover" unicode="&#58960;" d="M453.871 722.717c77.505-77.664 34.888-316.217 34.888-316.217s-238.076-42.724-315.583 34.941c-77.506 77.664-77.506 203.612 0 281.276 77.505 77.664 203.188 77.664 280.694 0zM169.629 304.005c72.688 72.529 317.648 54.371 317.648 54.371s18.159-244.536-54.476-317.064c-72.688-72.529-190.483-72.529-263.171 0-72.636 72.529-72.636 190.164 0 262.694zM853.1 304.005c72.371-72.529 72.371-190.164 0-262.641-72.371-72.529-189.741-72.529-262.112 0-72.371 72.529-54.264 317.064-54.264 317.064s244.006 18.106 316.376-54.424zM569.971 722.717c77.188 77.664 202.341 77.664 279.529 0s77.188-203.612 0-281.276c-77.188-77.664-314.259-34.941-314.259-34.941s-42.459 238.552 34.729 316.217z"  horiz-adv-x="1024" />

    
    <glyph glyph-name="share" unicode="&#58961;" d="M791.183 128.08399999999995c-64.258 0-116.326 52.067-116.326 116.326 0 34.851 15.634 65.747 39.877 87.057l-115.443 138.567c-19.263-10.051-40.807-16.238-64.026-16.238-20.521 0-39.877 4.7-57.418 12.656l-99.854-139.778c38.806-29.78 64.212-76.124 64.212-128.796 0-89.944-72.913-162.856-162.857-162.856s-162.856 72.913-162.856 162.856 72.913 162.857 162.857 162.857c13.634 0 26.708-2.186 39.411-5.35l107.996 151.178c-19.171 23.917-31.082 53.835-31.082 86.826 0 77.101 62.49 139.591 139.592 139.591s139.592-62.49 139.592-139.591c0-30.059-9.725-57.79-25.917-80.543l127.958-153.502c4.7 0.559 9.4 1.396 14.284 1.396 64.212 0 116.325-52.067 116.325-116.325s-52.115-116.325-116.325-116.325z"  horiz-adv-x="1024" />

    
    <glyph glyph-name="person" unicode="&#58962;" d="M116.492 38.886999999999944c57.744 162.531 212.923 279.183 395.88 279.183s338.137-116.652 395.88-279.183h-791.76zM512.372 364.6c-103.158 0-186.819 83.335-186.819 186.121s83.662 186.121 186.819 186.121 186.819-83.335 186.819-186.121-83.662-186.121-186.819-186.121z"  horiz-adv-x="1025" />

    
    <glyph glyph-name="people" unicode="&#58964;" d="M383.273-7.756999999999948c-0.567 7.331-2.182 14.356-2.182 21.818 0 156.654 126.982 283.636 283.636 283.636s283.636-126.982 283.636-283.636c0-7.462-1.658-14.487-2.182-21.818h-562.909zM664.727 341.33399999999995c-84.349 0-152.727 68.378-152.727 152.727s68.378 152.727 152.727 152.727 152.727-68.378 152.727-152.727-68.378-152.727-152.727-152.727zM468.364 494.061c0-21.731 4.364-42.24 10.866-61.746-10.56-2.313-21.426-3.709-32.684-3.709-84.349 0-152.727 68.378-152.727 152.727 0 84.349 68.378 152.727 152.727 152.727 52.713 0 99.142-26.706 126.589-67.287-62.051-32.989-104.771-97.527-104.771-172.713zM506.502 378.73c15.884-21.731 36.087-39.753 59.346-53.411-125.586-39.84-218.269-152.902-227.302-289.44h-218.182c-0.48 7.244-1.091 14.487-1.091 21.818 0 180.742 146.531 327.273 327.273 327.273 20.553 0 40.451-2.574 59.956-6.24z"  horiz-adv-x="1024" />

    
    <glyph glyph-name="blocks" unicode="&#58965;" d="M880.182 15.817999999999984h-327.273c-22.582 0-40.909 18.327-40.909 40.909v368.182c0 22.582 18.327 40.909 40.909 40.909h327.273c22.582 0 40.909-18.327 40.909-40.909v-368.182c0-22.582-18.327-40.909-40.909-40.909zM880.182 547.637h-327.273c-22.582 0-40.909 18.327-40.909 40.909v163.637c0 22.582 18.327 40.909 40.909 40.909h327.273c22.582 0 40.909-18.327 40.909-40.909v-163.637c0-22.582-18.327-40.909-40.909-40.909zM389.273 15.817999999999984h-245.454c-22.582 0-40.909 18.327-40.909 40.909v163.637c0 22.582 18.327 40.909 40.909 40.909h245.454c22.582 0 40.909-18.327 40.909-40.909v-163.637c0-22.582-18.327-40.909-40.909-40.909zM389.273 343.091h-245.454c-22.582 0-40.909 18.327-40.909 40.909v368.182c0 22.582 18.327 40.909 40.909 40.909h245.454c22.582 0 40.909-18.327 40.909-40.909v-368.182c0-22.582-18.327-40.909-40.909-40.909z"  horiz-adv-x="1024" />

    
    <glyph glyph-name="attention" unicode="&#58966;" d="M512-25.091000000000008c-225.941 0-409.091 183.15-409.091 409.091s183.15 409.091 409.091 409.091 409.091-183.15 409.091-409.091-183.15-409.091-409.091-409.091zM451.659 138.54600000000005h124.037v96.382h-124.037v-96.382zM593.818 629.454h-163.637v-122.727l40.909-204.546h81.818l40.909 204.546v122.727z"  horiz-adv-x="1024" />

    
    <glyph glyph-name="dongtaijiankong" unicode="&#58967;" d="M877.625 192.495h-309.375v-140.625h84.375c15.525 0 28.125-12.601 28.125-28.125s-12.601-28.125-28.125-28.125h-253.125c-15.525 0-28.125 12.601-28.125 28.125s12.601 28.125 28.125 28.125h84.375v140.625h-337.5c-31.050 0-56.25 25.2-56.25 56.25v450c0 31.050 25.2 56.25 56.25 56.25h731.25c31.050 0 56.25-25.2 56.25-56.25v-450c0-31.050-25.2-56.25-56.25-56.25zM877.625 670.62c0 15.525-12.601 28.125-28.125 28.125h-675.001c-15.525 0-28.125-12.601-28.125-28.125v-393.75c0-15.525 12.601-28.125 28.125-28.125h675.001c15.525 0 28.125 12.601 28.125 28.125v393.75zM708.875 403.433c0-23.316-18.873-42.188-42.188-42.188s-42.188 18.871-42.188 42.188c0 3.178 1.153 5.991 1.802 8.972l-169.931 148.697c-4.613-1.744-9.478-2.981-14.681-2.981-1.463 0-2.7 0.675-4.134 0.844l-127.997-192.010c3.235-5.991 5.569-12.487 5.569-19.773 0-23.289-18.871-42.188-42.188-42.188s-42.188 18.9-42.188 42.188c0 23.316 18.871 42.188 42.188 42.188 1.463 0 2.7-0.675 4.134-0.844l127.997 192.007c-3.235 5.991-5.569 12.487-5.569 19.771 0 23.316 18.873 42.188 42.188 42.188s42.188-18.871 42.188-42.188c0-3.178-1.153-5.991-1.799-8.944l169.931-148.697c4.613 1.716 9.45 2.953 14.681 2.953 1.856 0 3.459-0.816 5.287-1.069l121.275 169.819 28.125-28.125-117.281-164.194c2.841-5.681 4.781-11.841 4.781-18.619z"  horiz-adv-x="1024" />

    
    <glyph glyph-name="clock" unicode="&#58970;" d="M799.389 751.156c15.796 15.796 37.614 25.571 61.702 25.571 48.174 0 87.273-39.098 87.273-87.273 0-24.087-9.774-45.906-25.571-61.702l-123.404 123.404zM948.364 384c0-241.004-195.36-436.364-436.364-436.364s-436.364 195.36-436.364 436.364 195.36 436.364 436.364 436.364 436.364-195.36 436.364-436.364zM512 733.091c-192.786 0-349.091-156.306-349.091-349.091s156.306-349.091 349.091-349.091 349.091 156.306 349.091 349.091-156.306 349.091-349.091 349.091zM468.364 253.091l-218.182 218.182 43.636 43.636 174.546-174.546 261.818 218.182 43.636-43.636-305.454-261.818zM75.636 689.454c0 48.174 39.098 87.273 87.273 87.273 24.087 0 45.906-9.774 61.702-25.571l-123.404-123.404c-15.796 15.796-25.571 37.614-25.571 61.702z"  horiz-adv-x="1024" />

    
    <glyph glyph-name="filter" unicode="&#58971;" d="M75.636 165.81799999999998v305.454h87.273v-218.182h698.182v130.909h-174.546v87.273h261.818v-305.454h-872.727zM250.182 602.182h130.909c0 0 39.36-115.811 43.636-130.909 7.593 8.684 305.454 349.091 305.454 349.091l87.273-87.273-436.364-392.727-130.909 261.818zM861.091 78.54600000000005h-698.182v43.636h698.182v-43.636zM861.091-8.726999999999975h-698.182v43.636h698.182v-43.636z"  horiz-adv-x="1024" />

    
    <glyph glyph-name="trumpet" unicode="&#58972;" d="M818.818 192.23800000000006c-63.55 0-115.057 128.787-115.057 287.642s51.507 287.642 115.057 287.642 115.057-128.787 115.057-287.642-51.507-287.642-115.057-287.642zM732.525 210.418l-301.449 63.472 4.219-235.061h-76.704l-76.704 268.465-76.704 15.34v186.507l512.731 215.885c-32.101-59.753-52.504-147.311-52.504-245.148 0-112.028 26.617-210.785 67.117-269.463zM166.829 330.307l-76.704 15.34v115.057l76.704 32.293v-162.691z"  horiz-adv-x="1024" />

    
    <glyph glyph-name="color" unicode="&#58973;" d="M686.546 253.091c-248.422-167.956-65.629-261.818-174.546-261.818-241.004 0-436.364 166.08-436.364 370.909s195.36 370.909 436.364 370.909 436.364-166.08 436.364-370.909c0-112.276-105.469-3.36-261.818-109.091zM250.182 427.636c-48.174 0-87.273-39.098-87.273-87.273s39.098-87.273 87.273-87.273 87.273 39.098 87.273 87.273-39.098 87.273-87.273 87.273zM402.909 602.182c-36.174 0-65.454-29.28-65.454-65.454s29.28-65.454 65.454-65.454 65.454 29.28 65.454 65.454-29.28 65.454-65.454 65.454zM621.091 645.818c-36.174 0-65.454-29.28-65.454-65.454s29.28-65.454 65.454-65.454 65.454 29.28 65.454 65.454-29.28 65.454-65.454 65.454zM773.818 514.909c-24.087 0-43.636-19.549-43.636-43.636s19.549-43.636 43.636-43.636 43.636 19.549 43.636 43.636-19.549 43.636-43.636 43.636z"  horiz-adv-x="1024" />

    
    <glyph glyph-name="pages" unicode="&#58977;" d="M836.999 14.000999999999976h-400c-27.6 0-50 22.4-50 50v500c0 27.6 22.4 50 50 50h400c27.6 0 50-22.4 50-50v-500c0-27.6-22.4-50-50-50zM337 614v-450h-150c-27.6 0-50 22.4-50 50v500c0 27.6 22.4 50 50 50h400c27.6 0 50-22.4 50-50v-50h-249.999c-27.6 0-50-22.4-50-50z"  horiz-adv-x="1024" />

    
    <glyph glyph-name="person_card" unicode="&#58980;" d="M817.093 243.05499999999995c24.66 27.231 40.078 62.975 40.078 102.593 0 84.72-68.689 153.41-153.41 153.41s-153.41-68.689-153.41-153.41c0-39.618 15.418-75.363 40.078-102.593-80.233-37.585-138.144-113.369-151.262-204.226h-272.34c-42.34 0-76.704 34.363-76.704 76.704v421.875h843.75v-400.628c-27.422 46.176-67.845 83.34-116.783 106.274zM166.829 230.59000000000003h-38.352v-76.704h38.352v76.704zM396.943 230.59000000000003h-191.762v-76.704h191.762v76.704zM90.125 690.818c0 42.34 34.363 76.704 76.704 76.704h690.34c42.34 0 76.704-34.363 76.704-76.704v-76.704h-843.75v76.704zM703.762 230.59000000000003c127.061 0 230.113-103.053 230.113-230.113h-460.227c0 127.061 103.053 230.113 230.113 230.113zM588.704 345.648c0 63.55 51.507 115.057 115.057 115.057s115.057-51.507 115.057-115.057-51.507-115.057-115.057-115.057-115.057 51.507-115.057 115.057z"  horiz-adv-x="1024" />

    
    <glyph glyph-name="cloudload" unicode="&#58983;" d="M773.333 64c-9.12 0-17.867-1.226-26.666 0h-480c-117.814 0-213.334 95.52-213.334 213.334s95.52 213.334 213.334 213.334c0.907 0 1.813-0.266 2.72-0.266-1.013 8.96-2.72 17.707-2.72 26.933 0 132.533 107.467 240 240 240s240-107.467 240-240c0-30.187-6.187-58.88-16.427-85.493 13.92 3.307 28.213 5.494 43.093 5.494 103.093 0 186.667-83.573 186.667-186.667s-83.573-186.667-186.667-186.667zM586.666 544h-160v-213.334h160v213.334zM318.079 329.014l188.587-188.587 188.587 188.587h-377.173z"  horiz-adv-x="1024" />

    
    <glyph glyph-name="change" unicode="&#58986;" d="M125 217.5h503.352l0.648 171 333-234-333-220.5-0.148 157.5h-503.852c-34.794 0-63 28.206-63 63s28.206 63 63 63zM899 663h-503.352l-0.648 171-333-234 333-220.5 0.148 157.5h503.852c34.794 0 63 28.206 63 63s-28.206 63-63 63z"  horiz-adv-x="1024" />

    
    <glyph glyph-name="gaojingtongji" unicode="&#58987;" d="M774.755-8.727c-108.436 0-196.364 87.927-196.364 196.364s87.927 196.364 196.364 196.364 196.364-87.927 196.364-196.364-87.927-196.364-196.364-196.364zM796.573 318.546c0 12.044-9.774 21.818-21.818 21.818s-21.818-9.774-21.818-21.818v-174.546c0-12.044 9.774-21.818 21.818-21.818s21.818 9.774 21.818 21.818v174.546zM774.755 78.546c-12.044 0-21.818-9.774-21.818-21.818s9.774-21.818 21.818-21.818 21.818 9.774 21.818 21.818-9.774 21.818-21.818 21.818zM665.664 602.182h87.273v-133.091c-30.589-2.356-60.174-8.378-87.273-19.68v152.771zM534.755 337.396v352.058h87.273v-263.433c-35.346-22.734-64.974-52.974-87.273-88.626zM54.755-8.727v87.273h458.226c13.658-32.727 33.513-62.094 57.731-87.273h-515.956zM403.846 820.364h87.273v-698.182h-87.273v698.182zM272.938 602.182h87.273v-480h-87.273v480zM142.028 384h87.273v-261.818h-87.273v261.818z"  horiz-adv-x="1024" />

    
    <glyph glyph-name="gongdanguanli" unicode="&#58988;" d="M947.393 122.182h-12c-4.014-11.302-9.687-21.774-15.578-32.029l27.578-55.244-43.636-43.636-54.938 27.447c-10.342-6.022-20.902-11.782-32.334-15.84v-11.607l-43.636-43.636h-43.636l-43.636 43.636v12c-11.346 4.014-21.818 9.687-32.029 15.578l-55.244-27.578-43.636 43.636 27.447 54.938c-6.022 10.342-11.782 20.902-15.84 32.334h-11.607l-43.636 43.636v43.636l43.636 43.636h11.607c4.102 11.433 9.818 21.993 15.84 32.334l-27.447 54.938 43.636 43.636 55.244-27.622c10.211 5.934 20.684 11.564 32.029 15.622v12l43.636 43.636h43.636l43.636-43.636v-12c11.302-4.014 21.774-9.687 32.029-15.578l55.244 27.578 43.636-43.636-27.447-54.938c6.022-10.342 11.782-20.902 15.84-32.334h11.607l43.636-43.636v-43.636l-43.636-43.636zM751.030 253.091c-36.174 0-65.454-29.28-65.454-65.454s29.28-65.454 65.454-65.454c36.131 0 65.454 29.28 65.454 65.454s-29.324 65.454-65.454 65.454zM467.393 187.636c0-101.498 53.76-189.906 133.876-240h-439.331c-48.174 0-87.273 39.098-87.273 87.273v698.182c0 48.174 39.098 87.273 87.273 87.273h392.727v-174.546c0-48.174 39.098-87.273 87.273-87.273h174.546v-95.607c-21.076 5.018-42.807 8.334-65.454 8.334-156.654 0-283.636-126.982-283.636-283.636zM205.575 165.818h218.182v43.636h-218.182v-43.636zM205.575 296.727h218.182v43.636h-218.182v-43.636zM423.757 602.182h-218.182v-43.636h218.182v43.636zM467.393 471.273h-261.818v-43.636h261.818v43.636zM598.302 689.454v87.273l174.546-174.546h-87.273c-48.174 0-87.273 39.098-87.273 87.273z"  horiz-adv-x="1024" />

    
    <glyph glyph-name="arrow_up" unicode="&#58989;" d="M396.049 258.13l377.612 377.612 377.612-377.612-125.87-125.87-251.741 251.741-251.741-251.741-125.87 125.87z"  horiz-adv-x="1536" />

    
    <glyph glyph-name="arrow_down" unicode="&#58990;" d="M393.456 509.87l377.612-377.612 377.612 377.612-125.87 125.87-251.741-251.741-251.741 251.741-125.871-125.87z"  horiz-adv-x="1536" />

    
    <glyph glyph-name="device" unicode="&#58992;" d="M812.606 32.96900000000005v0c0-51.386-41.705-93.091-93.091-93.091h-418.909c-51.386 0-93.091 41.705-93.091 93.091v0h-139.636v791.273h884.364v-791.273h-139.636zM905.697 777.697h-791.273v-698.182h791.273v698.182zM859.152 358.788h-698.182v372.364h698.182v-372.364zM859.152 126.05999999999995h-698.182v186.182h698.182v-186.182zM254.061 265.697c-25.693 0-46.545-20.852-46.545-46.545s20.852-46.545 46.545-46.545 46.545 20.852 46.545 46.545-20.852 46.545-46.545 46.545zM812.606 265.697h-279.273v-93.091h-46.545v93.091h-93.091v-93.091h418.909v93.091z"  horiz-adv-x="1024" />

    
    <glyph glyph-name="weihutongji" unicode="&#58993;" d="M942.424 138.546l-122.727-122.727-262.432 262.432c-26.346-10.8-55.063-16.977-85.296-16.977-124.282 0-225 100.718-225 225 0 41.032 11.823 79.037 31.009 112.173l173.537-173.537 81.818 81.818-173.537 173.537c33.137 19.187 71.141 31.009 112.173 31.009 124.282 0 225-100.718 225-225 0-30.232-6.177-58.95-16.977-85.296l262.432-262.432zM246.97 711.273h81.818v-81.818h-81.818v81.818zM246.97 302.182h40.909l40.909-40.909v-204.546h-81.818v245.454zM369.696 220.363h81.818v-163.637h40.909v163.637h40.909l40.909-40.909v-122.727h40.909v81.818l122.727-122.727h-654.546v40.909h40.909v613.637h81.818v-613.637h163.637v163.637z"  horiz-adv-x="1024" />

    
    <glyph glyph-name="white_board" unicode="&#58994;" d="M919.413 368.24300000000005c13.12 0 23.78 10.688 23.78 23.802l0 264.313c0 50.016-40.499 90.502-90.507 90.502l-681.36 0c-50.002 0-90.525-40.486-90.525-90.502l0-548.288c0-49.977 40.523-90.464 90.525-90.464l681.36 0c50.002 0 90.507 40.475 90.507 90.464l0 100.61c-0.079 13.071-10.71 23.702-23.78 23.702-13.113 0-23.775-10.631-23.824-23.702l0-95.815c0-26.311-21.354-47.653-47.653-47.653l-671.846 0c-26.3 0-47.674 21.33-47.674 47.653l0 538.731c0 26.314 21.374 47.653 47.674 47.653l671.846 0c26.3 0 47.653-21.332 47.653-47.653l0-259.549c-0.013-13.134 10.655-23.802 23.824-23.802l0 0zM326.624 606.662c0-12.582-10.203-22.786-22.786-22.786l-76.635 0c-12.582 0-22.786 10.203-22.786 22.786l0 0c0 12.582 10.203 22.786 22.786 22.786l76.635 0c12.582 0 22.786-10.203 22.786-22.786l0 0zM326.624 487.197c0-12.582-10.203-22.786-22.786-22.786l-76.635 0c-12.582 0-22.786 10.203-22.786 22.786l0 0c0 12.582 10.203 22.786 22.786 22.786l76.635 0c12.582 0 22.786-10.203 22.786-22.786l0 0zM326.624 367.73699999999997c0-12.582-10.203-22.786-22.786-22.786l-76.635 0c-12.582 0-22.786 10.203-22.786 22.786l0 0c0 12.582 10.203 22.786 22.786 22.786l76.635 0c12.582-0.005 22.786-10.203 22.786-22.786l0 0zM824.417 622.768c8.905-8.898 8.905-23.319 0-32.224l-354.428-354.435c-8.898-8.898-23.319-8.898-32.224 0l0 0c-8.898 8.898-8.898 23.326 0 32.224l354.428 354.435c8.905 8.898 23.333 8.898 32.224 0l0 0z"  horiz-adv-x="1024" />

    
    <glyph glyph-name="record" unicode="&#58997;" d="M543.181 666.977c-50.91-0.073-91.965-42.545-92.111-94.979 0.145-52.472 41.201-94.871 92.111-94.98 50.838 0.11 92.02 42.509 92.057 94.98-0.037 52.435-41.219 94.907-92.057 94.979zM731.113 571.924c0 107.017-84.128 193.743-187.859 193.743-97.712 0-178.004-76.981-186.986-175.343-23.709 37.308-64.547 62.035-111.021 62.035-73.437 0-132.912-61.343-132.912-137.088 0-47.107 23.074-88.617 58.11-113.307h-3.2c-40.983 0-74.166-34.237-74.166-76.472v-246.65c0-42.253 33.183-76.508 74.166-76.508h469.137c40.911 0 74.147 34.254 74.147 76.508v246.649c0 42.235-33.238 76.472-74.147 76.472h-2.927c58.146 32.926 97.657 96.689 97.657 169.96zM319.195 401.963c27.873 19.418 48.401 49.126 55.801 84.163 17.236-35.872 45.111-65.108 79.093-84.163h-134.894zM543.218 436.727c-72.365 0-131.057 60.544-131.057 135.197 0 74.671 58.692 135.162 131.057 135.162 72.402 0 131.021-60.49 131.094-135.162-0.074-74.654-58.692-135.197-131.094-135.197zM743.949 246.43899999999996v-104.834l186.968-101.017v315.867l-186.968-110.017z"  horiz-adv-x="1024" />

    
    <glyph glyph-name="href" unicode="&#59002;" d="M511.933-65.93299999999999c-248.534 0-449.933 201.466-449.933 449.933s201.399 450 449.933 450 450-201.466 450-450-201.466-449.933-450-449.933zM396.333 455.4l-165.533-101.333c-65.333-39.933-87.667-128.468-50-197.667s121.2-92.932 186.532-52.933l165.6 101.333-27.333 50.134-165.6-101.333c-39.2-23.933-89.333-9.733-111.933 31.8s-9.134 94.6 30 118.599l165.533 101.333-27.266 50.067zM714.8 449.734l-27.333 50.134-378.4-231.532 27.333-50.134 378.4 231.532zM656.533 614.601l-165.533-101.267 27.333-50.134 165.6 101.333c39.2 23.933 89.267 9.733 111.933-31.8s9.201-94.6-30-118.599l-165.6-101.333 27.333-50.134 165.6 101.333c65.267 39.933 87.667 128.468 50 197.667-37.8 69.2-121.333 92.932-186.667 52.933z"  horiz-adv-x="1024" />

    
    <glyph glyph-name="list" unicode="&#59003;" d="M323.368421 87.57894699999997l0 80.842105 538.947368 0 0-80.842105L323.368421 87.57894699999997zM323.368421 330.10526300000004l538.947368 0 0-80.842105L323.368421 249.26315799999998 323.368421 330.10526300000004zM323.368421 491.789474l538.947368 0 0-80.842105L323.368421 410.947368 323.368421 491.789474zM323.368421 653.473684l538.947368 0 0-80.842105L323.368421 572.631579 323.368421 653.473684zM161.684211 168.42105300000003l80.842105 0 0-80.842105L161.684211 87.57894699999997 161.684211 168.42105300000003zM161.684211 330.10526300000004l80.842105 0 0-80.842105L161.684211 249.26315799999998 161.684211 330.10526300000004zM161.684211 491.789474l80.842105 0 0-80.842105L161.684211 410.947368 161.684211 491.789474zM161.684211 653.473684l80.842105 0 0-80.842105L161.684211 572.631579 161.684211 653.473684z"  horiz-adv-x="1024" />

    
    <glyph glyph-name="route" unicode="&#59004;" d="M1024 486.4V622.933333h68.266667v-68.266666h68.266666v-68.266667h-136.533333z m-238.933333-614.4a238.250667 238.250667 0 0 0-235.52 204.8H546.133333V657.066667a170.666667 170.666667 0 1 1-341.333333 0V281.6h136.533333v-68.266667H273.066667v-68.266666H204.8v-68.266667H136.533333v68.266667H68.266667v68.266666H0V281.6h136.533333V657.066667A238.933333 238.933333 0 0 0 375.466667 896a238.250667 238.250667 0 0 0 235.451733-204.8H614.4v-580.266667a170.666667 170.666667 0 1 1 341.333333 0V486.4h-136.533333V554.666667h68.266667V622.933333h68.266666V691.2h68.266667v-580.266667a238.933333 238.933333 0 0 0-238.933333-238.933333z"  horiz-adv-x="1160" />

    
    <glyph glyph-name="text" unicode="&#59006;" d="M767.547699-63.469288000000006H127.941416V831.978894h767.527744v-767.527744L767.547699-63.469288000000006z m63.96073 703.567014H191.902146l-0.688685 128.610146 640.294968-0.688685-640.294968 0.688685 0.688685-768.216429h511.684822V128.411881h127.921461V640.097726zM319.823608 384.254803h383.76336v-63.96073H319.823608v63.96073z m0 127.921461h383.76336v-63.96073H319.823608v63.96073z m255.842922-319.803653H319.823608v63.960731h255.842922v-63.960731z"  horiz-adv-x="1024" />

    
    <glyph glyph-name="reset" unicode="&#59011;" d="M767.547699 256.333342L575.66653 448.215534H703.587991c-28.702716 110.763686-136.093585 191.882192-255.842922 191.882192-142.074809 0-255.842922-113.76402-255.842923-255.842923 0-142.074809 113.768113-255.842922 255.842923-255.842922 54.614875 0 107.160625 13.70207 148.803047 42.719964l90.949409-90.981131c-65.667605-51.752688-149.617599-79.660294-239.752456-79.660295-213.112726 0-383.76336 170.648588-383.763361 383.763361s170.651658 383.76336 383.763361 383.76336c191.101409 0 353.019149-137.467885 383.76336-319.802629h127.921462L767.547699 256.333342z"  horiz-adv-x="1024" />

    
    <glyph glyph-name="microphone" unicode="&#59015;" d="M832.651636 327.81963599999995c-0.325818-1.861818-0.512-3.770182-0.884363-5.632a321.815273 321.815273 0 0 0-14.242909-50.501818c-0.837818-2.280727-1.629091-4.561455-2.513455-6.795636a318.696727 318.696727 0 0 0-25.879273-51.572364c-9.216-14.987636-19.549091-29.137455-30.999272-42.402909l-2.187637-2.373818A324.421818 324.421818 0 0 0 558.545455 61.90545499999996V-34.90909099999999h139.636363v-93.090909H325.818182v93.090909h139.636363v96.814546a324.421818 324.421818 0 0 0-230.586181 151.412363 323.816727 323.816727 0 0 0-25.925819 51.572364c-0.884364 2.234182-1.629091 4.514909-2.466909 6.795636a316.834909 316.834909 0 0 0-14.242909 50.501818c-0.372364 1.861818-0.558545 3.770182-0.884363 5.632A328.797091 328.797091 0 0 0 186.181818 384V477.090909h46.545455v-93.090909a279.272727 279.272727 0 1 1 558.545454 0V477.090909h46.545455v-93.090909c0-19.176727-2.001455-37.888-5.166546-56.180364zM512 197.81818199999998a186.181818 186.181818 0 0 0-186.181818 186.181818V709.818182a186.181818 186.181818 0 0 0 372.363636 0v-325.818182a186.181818 186.181818 0 0 0-186.181818-186.181818z"  horiz-adv-x="1024" />

    
    <glyph glyph-name="unlock" unicode="&#59020;" d="M831.508429 448.214511V640.097726c0 34.625612-41.659819 63.952544-94.073562 63.952544-52.414767 0-97.80863-29.326932-97.80863-63.952544v-191.882192h127.921462v-511.684822H63.980685V448.215534h447.724091V640.096702c0 103.876836 103.743806 191.882192 224.948285 191.882192 121.174803 0 222.775806-88.004333 222.775806-191.882192v-191.882191H831.508429zM511.705799 256.333342H319.823608v-63.960731h63.96073v-127.921461h63.960731V192.372611h63.96073v63.960731z"  horiz-adv-x="1024" />

    
    <glyph glyph-name="lock" unicode="&#59026;" d="M127.941416-63.469288000000006V448.215534h127.920438v191.880145c0 105.999173 100.220562 191.884238 223.862557 191.884239 123.612319 0 223.862557-85.885066 223.862557-191.884239v-191.879122h127.922485v-511.685845H127.941416zM383.784338 192.37056500000006h63.960731v-127.918392h63.958684V192.37056500000006h63.961754v63.961754H383.784338v-63.961754z m191.882192 447.727161c0 35.354206-42.47437 63.959707-95.942119 63.959707-53.465702 0-95.940073-28.605501-95.940073-63.959707v-191.882192h191.882192V640.097726z"  horiz-adv-x="1024" />

    
    <glyph glyph-name="dustbin" unicode="&#59029;" d="M575.66653 640.097726H127.941416v63.96073H383.784338V831.978894h255.842923v-127.921461h255.842922v-63.960731h-319.803653z m0 127.920438H447.745069v-63.960731h127.921461v63.960731z m255.841899-831.487452H191.902146V576.135972h639.606283v-639.60526zM383.784338 448.215534h-63.96073v-383.763361h63.96073V448.215534z m191.882192 0H447.745069v-383.763361h127.921461V448.215534z m127.920438 0h-63.960731v-383.763361h63.960731V448.215534z"  horiz-adv-x="1024" />

    
    <glyph glyph-name="import" unicode="&#59030;" d="M629.681231 265.84615399999996v-157.538462h-78.611693V187.07692299999997h-78.611692V265.84615399999996H393.846154V344.61538499999995h-78.611692V423.384615H393.846154V502.153846h78.611692V580.9230769999999h78.611692V659.692308h78.611693v-157.538462h393.137231v-236.307692H629.681231z m-471.748923-236.307692H786.904615v-157.538462H0.708923V896H786.904615v-157.538462H157.932308v-708.923076z"  horiz-adv-x="1024" />

    
    <glyph glyph-name="set" unicode="&#59031;" d="M836.385507 292.325068c-7.800663-27.807323-19.254529-54.023404-33.453927-78.456887l2.185782 2.026147s71.28044-91.000574 26.278504-136.004557l-22.127974-22.094204c-33.797757-33.83255-116.001991 18.909675-133.261073 30.643927-25.838482-14.476713-53.770648-25.683962-83.293031-33.016974l8.238638-0.25071s-15.790638-118.715799-79.393211-118.715799h-21.846564c-50.964742 0-77.989235 111.411439-80.517825 122.242112-29.897937 8.458649-57.923224 21.160949-83.794451 36.982286l8.051373-8.5487s-92.125187-75.8055-137.097448-30.804587l-19.910469 16.537652c-35.890418 35.893488 24.403806 134.759193 30.863938 145.059793-13.075807 23.092951-23.778566 47.685046-31.17707 73.774237-11.389398 2.65241-122.148991 29.64825-122.148991 80.486103v21.813818c0 58.050114 103.331413 76.086909 121.649618 78.834486 7.270591 26.276457 17.916045 51.055816 30.928407 74.308403-5.149277 7.269567-72.433706 104.389512-35.98354 140.841725l20.972661 17.663289c41.224914 41.194214 128.141472-19.069311 142.622278-29.616528 23.561625 13.45136 48.747237 24.405853 75.491345 31.92613 4.557806 19.380396 31.42778 124.022665 80.050174 124.022664h21.846564c55.42431 0 74.524321-97.963149 78.519308-123.180483 27.181059-7.426133 52.80567-18.380626 76.771501-31.893385 16.85283 10.392698 106.981547 63.415308 141.310399 29.148877l19.881816-21.034058c39.383986-39.385009-18.288528-117.091812-33.238008-135.787616 13.670348-24.093744 24.688285-49.90255 32.209586-77.209476l0.029676 1.373276s122.461099-15.760962 122.461099-79.395258v-21.813818c-0.002047-47.561225-100.491739-74.401524-123.119085-79.861885zM509.074879 535.2804719999999c-84.013439 0-152.110373-68.127633-152.110373-152.140049 0-84.012416 68.096934-154.263409 152.110373-154.26341s155.322531 70.249971 155.322532 154.26341c0.001023 84.012416-71.309092 152.140049-155.322532 152.140049z m1.997494-241.98838c-49.559742 0-89.786932 40.196491-89.786933 89.818655 0 49.588395 40.22719 89.784886 89.786933 89.784886 49.619094 0 89.816608-40.196491 89.816608-89.784886 0-49.621141-40.197514-89.818655-89.816608-89.818655z"  horiz-adv-x="1024" />

    
    <glyph glyph-name="x" unicode="&#59032;" d="M895.445624 192.39000799999997L703.569572 0.512931999999978 511.69352 192.39000799999997 319.820538 0.512931999999978 127.941416 192.39000799999997l191.878098 191.878098-191.878098 191.871959 191.878098 191.878099 191.872982-191.878099 191.876053 191.878099 191.876052-191.878099-191.875029-191.871959 191.876052-191.878098z"  horiz-adv-x="1024" />

    
    <glyph glyph-name="fullscreen" unicode="&#59033;" d="M1061.888-128H132.736C67.029333-128 0-65.32266700000002 0 0V768c0 61.909333 72.490667 128 132.736 128h929.152C1114.282667 896 1194.666667 822.314667 1194.666667 768v-768c0-61.354667-64.981333-128-132.778667-128zM1109.333333 768a42.666667 42.666667 0 0 1-42.666666 42.666667H128a42.666667 42.666667 0 0 1-42.666667-42.666667v-768a42.666667 42.666667 0 0 1 42.666667-42.666667h938.666667a42.666667 42.666667 0 0 1 42.666666 42.666667V768z m-127.402666-85.632v-341.12L640 682.3679999999999h341.930667z m-769.194667-255.573333L554.666667 85.63199999999995H212.736v341.162667z"  horiz-adv-x="1194" />

    
    <glyph glyph-name="funnel" unicode="&#59034;" d="M703.586968 576.1369950000001v-639.606283H575.66653v319.803653H447.745069v-127.921461H319.823608V576.1369950000001L63.980685 831.978894h895.449206L703.586968 576.1369950000001zM447.745069 320.294073h127.921461v63.96073H447.745069v-63.96073zM383.784338 704.057433l63.960731-127.921461v-63.960731h127.921461v63.960731l63.960731 127.921461H383.784338z"  horiz-adv-x="1024" />

    
    <glyph glyph-name="date" unicode="&#59035;" d="M63.980685-63.469288000000006V831.978894h127.921461v-63.96073h63.960731v-127.920438h63.960731V768.018164h63.96073V831.978894h255.842923v-63.96073h63.96073v-127.921462h63.960731V768.018164h63.960731V831.978894h127.921461v-895.449205H63.980685z m831.488475 639.60526H127.941416v-575.645553h767.527744V576.135972zM383.784338 256.333342H255.862877v63.960731H383.784338v-63.960731z m0-127.921461H255.862877v63.96073H383.784338v-63.96073z m191.882192 255.842922H447.745069v63.960731h127.921461v-63.960731z m0-127.921461H447.744046v63.960731h127.921461v-63.960731z m0-127.921461H447.745069v63.96073h127.921461v-63.96073z m191.881169 255.842922H639.627261v63.960731h127.921461v-63.960731z m0-127.921461H639.015324l0.611937 63.960731h127.921461v-63.960731z"  horiz-adv-x="1024" />

    
    <glyph glyph-name="plus" unicode="&#59036;" d="M639.627261 256.333342h255.842922V512.176264H639.627261V768.018164H383.784338V512.175241H127.941416v-255.842922H383.784338v-255.842923h255.842923V256.333342z"  horiz-adv-x="1024" />

    
    <glyph glyph-name="search" unicode="&#59037;" d="M959.429891 144.78477999999996L820.252061-63.469288000000006 612.655979 104.18305999999995c-50.235125-24.15412-105.879446-38.858006-165.347862-38.858006-211.698516 0-383.327432 171.628916-383.327432 383.325385 0 211.700563 171.628916 383.328455 383.327432 383.328455 211.69647 0 383.327432-171.627892 383.327432-383.328455 0-55.550177-12.374842-107.992573-33.604352-155.649989l162.398694-148.21567z m-511.251964 561.293683c-142.18942 0-257.424954-115.236558-257.424954-257.394255 0-142.160767 115.235534-257.398348 257.424954-257.398348 142.15872 0 257.394255 115.237581 257.394255 257.398348 0 142.157697-115.235534 257.394255-257.394255 257.394255z"  horiz-adv-x="1024" />

    
    <glyph glyph-name="location" unicode="&#59038;" d="M512.039385-128S117.169231 284.672 117.169231 502.153846c0 217.560615 176.758154 393.846154 394.870154 393.846154a394.318769 394.318769 0 0 0 394.791384-393.846154c0-217.481846-394.791385-630.153846-394.791384-630.153846zM510.936615 659.692308a157.774769 157.774769 0 0 1-158.011077-157.538462c0-87.04 70.734769-157.538462 158.011077-157.538461A157.774769 157.774769 0 0 1 668.947692 502.153846c0 87.04-70.734769 157.538462-158.011077 157.538462z"  horiz-adv-x="1024" />

    
    <glyph glyph-name="voice" unicode="&#59039;" d="M1006.478222 16.384000000000015l-21.902222 52.622222A341.219556 341.219556 0 0 1 1194.666667 384a340.935111 340.935111 0 0 1-214.755556 316.472889l21.219556 53.077333a397.994667 397.994667 0 0 0 5.347555-737.166222zM1080.888889 384a227.441778 227.441778 0 0 0-140.060445-209.976889l-21.902222 52.508445A170.609778 170.609778 0 0 1 1024 384a170.552889 170.552889 0 0 1-107.406222 158.264889l21.105778 52.736A227.271111 227.271111 0 0 0 1080.888889 384zM341.333333 97.05244400000004V668.444444l341.333334 227.555556h113.777777v-1024h-113.777777l-341.333334 225.052444zM0 213.33333300000004V554.666667a113.777778 113.777778 0 0 0 113.777778 113.777777h170.666666v-568.888888H113.777778a113.777778 113.777778 0 0 0-113.777778 113.777777z"  horiz-adv-x="1251" />

    
    <glyph glyph-name="fullexit" unicode="&#59040;" d="M981.034667 896.042667L1194.752 682.837333h-213.717333V896.042667zM981.418667 160c0-35.797333-41.770667-74.666667-85.333334-74.666667H298.752c-42.24 0-85.333333 36.565333-85.333333 74.666667V608C213.418667 644.096 260.010667 682.666667 298.752 682.666667h597.333333c33.664 0 85.333333-42.965333 85.333334-74.666667v-448zM853.418667 512a42.666667 42.666667 0 0 1-42.666667 42.666667H384.085333a42.666667 42.666667 0 0 1-42.666666-42.666667v-256a42.666667 42.666667 0 0 1 42.666666-42.666667h426.666667a42.666667 42.666667 0 0 1 42.666667 42.666667V512zM213.205333 896v-213.717333H0L213.205333 896z m0.597334-1024.042667L0.085333 85.16266700000006h213.717334v-213.205334zM981.589333-128v213.717333h213.205334L981.589333-128z"  horiz-adv-x="1194" />

    
    <glyph glyph-name="arrup" unicode="&#59041;" d="M255.862877 320.29509599999994V448.21758l191.884238 191.880146h127.918392l191.880145-191.880146V320.29509599999994l-191.880145 127.922484v-319.806723H447.747115V448.21758L255.862877 320.29509599999994z"  horiz-adv-x="1024" />

    
    <glyph glyph-name="cirx" unicode="&#59042;" d="M479.689618 0.5272589999999582c-229.588979 0-415.70791 186.153724-415.70791 415.743725 0 229.588979 186.118931 415.70791 415.70791 415.70791 229.590002 0 415.70791-186.118931 415.70791-415.70791 0-229.590002-186.117908-415.743726-415.70791-415.743725z m223.89735 319.766814h-63.960731v63.96073h-63.96073v63.960731h63.96073v63.96073h63.960731v63.960731h-63.960731v63.960731h-63.96073v-63.960731h-63.960731v-63.960731h-63.96073v63.960731l-63.989384-0.00614v63.956638h-63.956637v-63.956638h-63.955614v-63.955614h63.955614v-63.956637h63.956637v-63.956638h-63.956637v-63.955614h-63.955614v-63.956637h63.955614v-63.956638h63.956637v63.956638h63.956638v63.956637h63.956637l0.036839-63.974033h63.960731v-63.960731h63.96073v63.960731h63.960731v63.961754z"  horiz-adv-x="1024" />

    
    <glyph glyph-name="arrdown" unicode="&#59043;" d="M767.545652 448.212464v-127.922485l-191.884238-191.880145H447.744046l-191.880146 191.880145V448.212464l191.880146-127.922485V640.097726h127.918391v-319.806723l191.883215 127.921461z"  horiz-adv-x="1024" />

    
    <glyph glyph-name="file" unicode="&#59044;" d="M895.46916 0.4904189999999744H127.941416c-35.261085 0-63.960731 28.732391-63.960731 63.960731V512.176264h63.960731l767.6751 0.854461c35.231409 0 63.793932-0.654916 63.793932 0v-446.529893c0.001023-35.228339-28.709879-66.010413-63.941288-66.010413zM447.745069 576.1369950000001H63.980685V768.018164c0 35.229362 28.699646 63.959707 63.960731 63.959707h319.803653c35.225269 0 63.960731-28.732391 63.96073-63.960731v-63.96073h383.763361c35.231409 0 63.941288-28.220738 63.941288-63.447031 0-35.228339 0.019443-64.473407 0.019443-64.473407H447.745069z"  horiz-adv-x="1024" />

    
    <glyph glyph-name="exit" unicode="&#59045;" d="M511.733429-63.52454599999999c-247.300362 0-447.752744 200.481034-447.752744 447.752743 0 178.305989 105.004519 331.001693 255.858272 403.02403v-148.605549c-77.267804-58.373479-127.927601-150.102646-127.927601-254.418481 0-176.621627 143.168724-319.825143 319.822073-319.825142 176.620603 0 319.821049 143.203516 319.821049 319.825142 0 104.315834-50.688449 196.045001-127.928624 254.418481V787.251204c150.854776-72.022337 255.858272-224.718041 255.858272-403.02403 0.001023-247.270686-200.48308-447.75172-447.750697-447.75172zM447.769628 831.978894h127.927601v-383.787919H447.769628V831.978894z"  horiz-adv-x="1024" />

    
    <glyph glyph-name="export_out" unicode="&#59046;" d="M767.547699-63.469288000000006H63.980685v319.803653h127.921461v-191.882192h575.645553V256.333342h127.921461v-319.803653H767.547699zM511.705799 449.024969c-131.857097-66.834174-227.139184-182.325535-249.907746-319.958172-2.812045 20.863167-5.934153 41.630143-5.934153 63.305814 0 186.227402 105.624642 345.691253 255.842923 413.180344V831.978894l319.803653-255.842922v-63.960731l-319.803653-255.842922V449.024969z"  horiz-adv-x="1024" />

    
    <glyph glyph-name="edit" unicode="&#59047;" d="M831.508429 448.215534L575.66653 704.057433l63.960731 63.960731h127.921461l127.921461-127.921462V512.175241l-63.961754-63.959707zM447.745069 64.45114999999998L191.902146 320.294073l319.803653 319.803653 255.842923-255.842923-319.803653-319.803653z m-63.960731-63.960731H127.941416V256.333342L383.784338 0.4904189999999744z"  horiz-adv-x="1024" />

    
    <glyph glyph-name="deal" unicode="&#59048;" d="M0-128v170.666667h1024v-170.666667H0z m938.666667 768h-85.333334v-85.333333H768v-85.333334H682.666667v-85.333333H597.333333v-85.333333H512v-85.333334H341.333333V298.66666699999996H256V384H170.666667V469.333333H85.333333V554.666667H0V725.333333h170.666667v-85.333333h85.333333v-85.333333h85.333333v-85.333334h170.666667V554.666667h85.333333V640h85.333334V725.333333h85.333333V810.666667h85.333333V896h170.666667v-170.666667h-85.333333v-85.333333z"  horiz-adv-x="1024" />

    
    <glyph glyph-name="key" unicode="&#59049;" d="M767.547699 576.1369950000001c-3.919263-76.841086-127.921461-63.960731-127.921462-63.960731h-63.96073v-447.724091l-63.960731-127.921461c-49.674353 0-130.398886 80.277348-130.398885 80.277348l66.438155 111.604844-63.960731 63.960731h63.960731v63.96073l-89.651857 38.924521 89.651857 25.03621-87.446632 71.437006 87.446632 120.445186H383.784338c-127.067001 3.920286-127.921461 63.960731-127.921461 63.96073v191.880146c0 63.960731 77.296457 63.960731 127.921461 63.96073h255.842923c50.625004 0 127.921461 0 127.921461-63.96073v-191.881169z m-63.960731 191.881169H319.823608c0-15.189957 0.276293-63.960731 0-63.960731h383.76336v63.960731z"  horiz-adv-x="1024" />

    
    <glyph glyph-name="export" unicode="&#59050;" d="M945.703385 344.61538499999995v-78.769231h-78.769231v-78.769231h-78.848v-78.769231H709.238154l0.078769 157.538462H315.234462V502.153846h394.082461l-0.078769 157.538462h78.848v-78.769231h78.848v-78.769231h78.769231v-78.769231h78.76923v-78.76923h-78.76923zM157.617231 29.53846199999998h630.468923v-157.538462H0V896h788.086154v-157.538462H157.617231v-708.923076z"  horiz-adv-x="1024" />

    
    <glyph glyph-name="refresh" unicode="&#59051;" d="M875.006106 512.21208l-276.101315-0.031722s-47.871287-2.270716-5.910617 36.68348l101.840456 85.730547c-3.414773-3.511987-38.247092 69.464071-183.128831 69.464071-159.736051 0-255.614725-125.572974-255.803013-285.310047-0.040932-34.493605-64.00064-34.493605-64.00064-34.493606-64.194044 0-63.960731 41.773406-63.96073 41.773406 0 223.057215 160.710238 405.951709 383.764383 405.951709 159.990854 2.666736 266.793322-113.25339 266.793323-113.253391l73.03541 92.65833s43.246967 47.332005 43.905975-0.877997l0.031723-282.464233c0-0.001023 0.031722-15.830547-20.466124-15.830547zM154.204569 320.29918899999996l275.759531-0.001023s50.653657-0.595564-20.977777-65.063855l-74.187652-75.154677c3.417843 3.51301 35.139312-63.787792 180.017979-63.787792 159.739121 0 258.917958 119.92944 258.917958 279.636838 0 45.482891 57.774845 52.287877 57.774845 52.287877 64.198138 0 65.790402-52.226478 65.790402-52.226478 0-223.084844-162.535817-395.498636-385.594056-395.498636-159.987784-2.666736-260.568551 95.459119-260.56855 95.459119l-59.09184-54.587246s-64.103993-61.739133-64.103993-30.956036V286.62115900000003s0.061398 33.762965 26.263153 33.67803z"  horiz-adv-x="1024" />

    
    <glyph glyph-name="download" unicode="&#59052;" d="M191.901123-63.469288000000006H63.980685V256.332319h127.920438v-191.883215h575.646576V256.332319h127.921461v-319.80263H191.901123z m255.842923 191.879122L191.901123 448.211441h575.646576L511.705799 128.40983400000005h-63.961753zM383.785362 831.978894h191.881168v-383.767453H383.785362V831.978894z"  horiz-adv-x="1024" />

    


  </font>
</defs>
</svg>
